<svg height="426pt" preserveAspectRatio="xMidYMid meet" viewBox="0 0 374 426" width="374pt" xmlns="http://www.w3.org/2000/svg"><g transform="matrix(.1 0 0 -.1 0 426)"><path d="m2223 4116c6-40 4-47-19-65-30-24-44-20-44 12 0 12-9 33-20 47-19 25-20 25-20 3 0-12-4-25-10-28-5-3-10 3-10 14 0 29-12 26-70-15-59-42-118-59-257-73-116-11-159-27-268-100-41-28-79-51-83-51s-25-17-46-37c-45-44-86-122-116-220l-21-70-72-5c-107-7-210-69-254-151-30-59-72-260-55-270 4-3 9-24 10-46 2-23 9-59 17-82 10-27 13-59 9-93-4-28-1-100 5-160 12-103 11-110-8-130-31-33-34-64-22-251 9-136 17-194 36-254 25-79 66-134 112-152 15-5 25-22 33-51 32-127 83-232 142-294 23-25 37-59 64-158 19-69 34-133 34-140 0-8-17-44-38-81l-38-67-165-70c-200-84-441-181-491-197-47-16-77-51-122-145-37-80-99-256-110-318l-7-37 68-34c162-82 454-174 713-227 574-115 1179-98 1750 51 116 30 464 143 489 159 12 7 12 28-2 138-21 168-70 302-109 302-12 0-197 84-522 238-279 132-290 138-327 187l-37 50 14 79c22 130 52 205 99 257 64 68 92 120 117 209 20 69 26 80 45 80 32 0 89 54 108 103 21 56 63 251 77 357 19 143-5 220-72 234-30 6-31 7-16 28 10 14 16 44 16 78 1 52 8 78 69 240 31 84 24 184-21 289-13 31-15 46-8 51 19 12-1 61-42 102l-39 39 30 74c36 86 42 186 16 273-15 51-44 73-46 35 0-10-6 2-13 27-16 62-52 118-90 141-42 25-47 24-35-10 6-16 9-42 7-58-3-24-6-20-25 32-12 33-39 89-60 124-36 60-38 62-41 35-6-57-13-60-31-13-10 26-26 57-35 70-17 24-17 23-11-22 5-30 3-49-4-53-6-4-11-1-11 7 0 16-37 67-49 67-4 0-7-12-6-27 0-46-22-36-40 16-21 63-30 65-22 7zm-453-670c43-7 113-11 166-8 114 5 220-19 350-82 123-59 158-95 178-185 9-38 16-105 16-148v-79l46-44c25-25 52-58 61-74 14-27 32-216 21-216-3 0-33 27-66 59-45 45-72 63-113 75-29 9-60 16-69 16s-34 9-55 20c-32 17-58 21-130 20-49-1-92-1-95 0-29 8-84 11-330 15-171 2-305 0-335-6-27-6-88-14-133-19-103-11-121-16-151-44l-23-21 21 36c12 21 48 66 80 101l59 64-19 90c-34 163-21 229 62 319 61 66 89 83 171 105 86 22 184 24 288 6zm123-696h49l-29-34c-24-30-34-35-76-35-43-1-52 3-90 40l-42 41 70-6c39-3 92-6 118-6zm-603-16c0-3-11-20-25-38s-25-38-25-44 30 3 67 20c99 44 150 58 222 58 69 0 127-21 170-61 20-19 22-28 17-66-8-57-57-174-98-235-49-71-79-82-233-82-119-1-134 1-180 24-44 22-52 31-67 75-22 63-23 185-3 252 17 56 41 78 102 92 49 12 53 12 53 5zm970-38c36-12 89-33 119-45l54-22-18 27c-16 25-16 27 0 21 9-4 20-7 25-7s22-14 39-31c29-28 31-36 31-98 0-148-31-232-101-271-38-22-56-25-134-24-109 0-191 23-227 61-32 35-81 130-102 202-23 78-20 171 5 171 4 0 6-7 3-15-8-20 10-19 27 2 46 55 170 68 279 29zm-1240-76c0-21-24-28-35-10-8 14 3 30 21 30 8 0 14-9 14-20zm-60-49c5-11 10-41 10-68 0-32 9-67 27-103 26-54 27-60 27-242 1-104-2-188-5-188-4 0-21 16-38 35-32 37-55 101-71 201-10 59-12 147-3 109 12-50 18-26 14 62-2 68 1 98 9 103s10 18 6 34c-11 43-24 29-31-31-10-85-13-87-14-5-1 59 2 75 19 92 25 25 37 25 50 1zm897 11c7-4 24-48 38-97 26-87 63-160 111-218 26-31 31-76 12-95-7-7-28-12-49-12-25 0-48-9-74-30-46-36-74-38-123-6-20 14-59 30-87 37-27 6-56 16-62 22-20 15-15 48 9 74 12 13 17 23 10 23-17 0-52-50-52-76 0-29 39-60 87-68 21-3 56-17 78-31l40-24-65-1c-110 0-239-19-281-41-47-24-119-86-119-103 0-7 11-27 24-45 21-29 24-40 19-84-8-62 9-57 27 8 10 36 10 52 1 72-7 14-8 30-4 34 21 20 272 67 282 52 3-5 37-18 75-28 59-15 74-16 105-5 19 7 48 13 64 12 19 0 27 4 24 11-8 22 169 0 232-29 51-23 53-26 48-54-4-16-4-37 0-46 7-20 53 58 53 91 0 34-71 90-144 115-48 15-198 39-260 40-5 0 8 13 30 30 25 19 51 30 73 30 43 0 71 25 71 62 0 20 4 27 12 22 24-15 136-33 205-34 122 0 171 15 225 70 38 39 48 59 58 105 7 32 18 74 26 94l13 36-5-40c-3-22-1-96 4-165 14-176-4-353-53-518-30-101-120-203-252-286l-42-26 9 26c12 30 13 64 3 64-5 0-15-15-24-33-20-41-90-94-135-103-45-8-104 17-144 62-48 56-48 68 9 150 28 41 51 77 51 79s-21-3-46-12c-53-18-235-14-291 7-18 7-37 10-42 8-5-1 13-33 40-70 61-85 63-112 12-169-60-66-131-86-192-54-30 15-121 111-121 126 0 5-4 9-10 9-5 0-10-11-10-25s-3-25-8-25c-4 0-44 35-88 78-95 91-132 159-170 309-21 84-24 118-24 274 0 101 5 190 11 206l10 27 19-40c20-45 66-85 120-103 51-18 258-25 309-11 84 22 185 148 232 287 20 60 22 63 52 63 18 0 37-4 44-8zm801-21c-2-9-11-17-21-19-12-3-17 3-17 21 0 20 4 24 20 20 12-3 20-12 18-22zm76-31c55-20 55-153 2-396-27-124-52-189-84-218-34-30-51-15-41 36 4 24 12 95 16 158 6 99 8 110 16 77 5-22 5-58 0-92-6-29-7-59-3-65 9-15 36-3 55 27 22 33 11 42-15 12l-21-24 7 30c14 64-8 191-32 183-5-2-10 11-12 29-2 22 3 38 17 52 18 18 21 34 21 105 0 97 11 110 74 86zm-859-560c-3-5-12-10-18-10-7 0-6 4 3 10 19 12 23 12 15 0zm-55-10 25-8-25-1c-14 0-32 4-40 9-13 9-13 10 0 9 8-1 26-5 40-9zm-377-600c147-140 206-174 328-189 128-17 241 10 324 76 19 15 56 56 82 91 26 36 73 82 107 106 87 61 88 61 77 34-19-51-57-267-76-438-6-52-9-57-54-88-27-18-95-53-152-77s-131-59-163-79c-33-20-66-36-72-36-19 0-65 22-99 46-16 12-50 27-75 34-120 30-301 125-285 149 9 16-25 180-74 357l-48 173 26-18c14-11 84-74 154-141zm928-237c45-111 25-218-78-410l-55-104-27 79c-47 141-74 160-173 125-68-24-69-14-1 12 72 27 200 92 238 121 35 27 38 35 50 167 4 37 10 67 15 67 4 0 18-26 31-57zm-1026-36c3-28 7-69 9-89 1-21 4-39 7-41 42-34 87-62 144-91 39-19 62-35 53-36-26 0-83-55-136-128l-46-65-18 42c-67 159-83 309-47 432 15 49 26 42 34-24zm-615-211c0-2-41-21-91-42-70-30-95-46-110-71-25-40-35-44-15-5 28 53 42 64 121 92 81 29 95 33 95 26zm960-76c13-9 13-10 0-10-8 0-22 5-30 10-13 9-13 10 0 10 8 0 22-5 30-10zm464-47c16-32 56-159 56-178 0-14-177-310-217-364l-26-34-33 119c-52 183-51 165-6 223 22 28 64 92 93 142 70 121 105 145 133 92zm1011-19c63-30 61-27 69-74l6-35-13 35c-10 27-27 42-73 67-71 39-65 43 11 7zm-1565-30c58-14 106-27 108-29 2-1-2-42-8-91-7-60-23-120-49-184-21-52-42-108-45-124-7-27-8-28-20-10-34 48-175 302-181 324-5 20 4 39 35 83 23 31 44 57 48 57s54-12 112-26z"/><path d="m1473 2661c-35-9-118-55-128-72-4-6 19 5 51 23 94 52 166 45 274-29 25-17 25-17 7 3-22 27-103 70-142 77-16 3-44 2-62-2z"/><path d="m1410 2611c-19-11-44-29-55-41-16-18-17-23-5-30 18-11 107-12 242-3l98 6-33 25c-82 62-178 79-247 43zm150-10c0-14-18-23-30-16-6 4-8 11-5 16 8 12 35 12 35 0zm-126-27c9-33 8-33-32-27l-33 5 22 24c29 30 35 30 43-2zm198-4 33-20h-42c-36 0-43 3-43 20 0 25 11 25 52 0z"/><path d="m1284 2428-19-21 25 16c24 15 32 15 104 1 86-18 172-13 202 12 18 15 18 15-1 8-42-16-133-19-200-7-90 17-89 17-111-9z"/><path d="m2137 2640c-32-10-117-62-117-72 0-3 26 9 57 28 56 34 79 39 138 35 32-3 99-34 128-59 9-8 17-12 17-7 0 23-121 85-165 84-16 0-42-4-58-9z"/><path d="m2145 2607c-43-15-98-47-91-54 2-3 18 2 34 11 28 15 30 14 35-6 5-19 3-20-44-16-61 6-74-7-16-17 58-9 246-15 279-8 23 4 26 8 18 24-15 27-89 67-135 73-22 3-58 0-80-7zm103-29c-3-7-11-13-18-13s-15 6-17 13c-3 7 4 12 17 12s20-5 18-12zm64-15c26-24 22-33-16-33-30 0-33 2-28 25 5 29 18 32 44 8z"/><path d="m2050 2440c0-13 89-40 150-46 41-5 69-1 113 14l57 21 32-27c28-24 30-24 19-4-20 38-48 46-98 27-60-23-155-22-221 3-29 11-52 16-52 12z"/><path d="m985 2321c8-78-11-160-31-133-9 12-10 5-6-39 5-57 16-79 39-79 11 0 14 15 14 68 0 37 1 99 1 138 1 39-4 79-11 90-10 15-11 7-6-45zm-8-213c-3-7-5-2-5 12s2 19 5 13c2-7 2-19 0-25z"/><path d="m1465 1922-39-7 33-28c46-39 139-84 208-102 115-30 313-11 412 40 51 26 98 71 87 82-4 5-103 9-219 10-117 1-264 3-327 6s-133 2-155-1zm335-24c36 0 112 2 170 7 63 4 115 3 130-3l25-9-32-30c-51-48-137-68-283-67-140 0-209 16-274 62-71 49-63 54 75 47 68-3 153-6 189-7z"/><path d="m1615 1742c39-43 281-55 358-18 50 24 42 30-14 10-73-26-243-20-335 12-13 5-16 4-9-4z"/><path d="m2703 2468c-16-20-33-87-23-93 5-3 14 13 20 35 24 91 39 9 21-117-4-29-4-53 0-53 10 0 16 19 30 101 10 63 10 79-2 104-16 33-32 41-46 23z"/></g></svg>